# xmcd database file
#
# Track frame offsets:
# 150
# 22952
# 45402
# 63560
# 85035
# 112945
# 134255
# 149167
# 176810
# 194370
# 211770
#
# Disc length: 3081 seconds
#
# Revision: 0
# Processed by: cddbd v1.5.1PL0 Copyright (c) Steve Scherf et al.
# Submitted via: CD-Runner 2005.20
#
DISCID=980c070b
DTITLE=Lil" Malcolm - Lil' Malcolm and The House Rockers
DYEAR=1999
DGENRE=Zydeco
TTITLE0=My Toot Toot
TTITLE1=Hot Tomale Baby
TTITLE2=Ay Tete Fee
TTITLE3=Joy to the South
TTITLE4=Morning Train
TTITLE5=Ann Cayenne
TTITLE6=I'm A Hog For You
TTITLE7=Texas Style Toot Toot
TTITLE8=If It'S Good For The Goose
TTITLE9=Color Me Zydeco
TTITLE10=I'm Your Man
EXTD=
EXTT0=
EXTT1=
EXTT2=
EXTT3=
EXTT4=
EXTT5=
EXTT6=
EXTT7=
EXTT8=
EXTT9=
EXTT10=
PLAYORDER=
